<?xml version="1.0" encoding="utf-8"?>
<!-- Generator: Adobe Illustrator 16.0.0, SVG Export Plug-In . SVG Version: 6.00 Build 0)  -->
<!DOCTYPE svg PUBLIC "-//W3C//DTD SVG 1.1//EN" "http://www.w3.org/Graphics/SVG/1.1/DTD/svg11.dtd">
<svg version="1.1" id="Layer_1" xmlns="http://www.w3.org/2000/svg" xmlns:xlink="http://www.w3.org/1999/xlink" x="0px" y="0px"
	 width="512px" height="512px" viewBox="0 0 512 512" enable-background="new 0 0 512 512" xml:space="preserve">
<g>
	<path fill-rule="evenodd" clip-rule="evenodd" d="M381.404,226.388c12.012-44.481,23.365-86.522,34.852-129.039
		c26.5,4.717,48.006,15.505,67.064,33.839c-37.814,31.042,0,0-37.814,31.042c7.553,3.223,7.553,3.223,7.553,3.223s0,0,41.227-35.592
		c-21.973-20.798-48.014-36.086-76.795-36.086c-66.926,0,0,0-66.926,0c-7.223,29.514-14.967,59.646-21.41,89.659
		c-3.186,14.833,5.402,29.116,19.977,34.849c9.809,3.859,20.512,5.433,32.199,8.376c0.02-0.077,0.041-0.151,0.062-0.228
		c88.715,16.151,100.551,66.414,97.475,108.154c-3.389,45.982-39.498,70.734-83.4,83.627c49.48,0.695,91.908-35.654,96.9-83.627
		C495.744,302.119,488.807,236.656,381.404,226.388z"/>
	<path fill-rule="evenodd" clip-rule="evenodd" d="M328.467,416.543c-21.75-4.496-39.9-11.848-59.729-25.689
		c8.227,27.359,8.227,27.359,8.227,27.359s35.914,0,51.492,0C328.322,417.547,328.602,417.209,328.467,416.543z"/>
	<path fill-rule="evenodd" clip-rule="evenodd" d="M345.818,360.49c7.436-28.629,13.092-50.432,19.516-75.168
		c-15.846,2.361-40.652-10.045-54.93-25.727c-2.244,7.979-6.83,24.447-9.02,32.225c-0.992-0.062-1.986-0.127-2.982-0.186
		c-19.188-66.03-38.174-131.346-57.502-197.859c-23.738,0-49.465,0-49.465,0s-52.396,186.568-55.962,198.335
		c-0.965-0.115-1.932-0.23-2.896-0.348c-16.316-66.239-32.633-132.481-48.769-197.988c-22.862,0-43.749,0-66.095,0
		C46.802,202.7,75.61,310.578,104.354,418.213c18.474,0,35.262,0,53.021,0c19.531-64.156,39.037-128.238,59.788-196.405
		c15.758,51.651,30.201,98.993,46.107,151.125c12.389-14.215,22.357-25.658,30.078-34.514c18.803,13.436,63.666,42.334,91.6,12.922
		C375.41,361.389,356.275,362.809,345.818,360.49z"/>
</g>
</svg>
