<?xml version="1.0" encoding="utf-8"?>
<!-- Generator: Adobe Illustrator 16.0.0, SVG Export Plug-In . SVG Version: 6.00 Build 0)  -->
<!DOCTYPE svg PUBLIC "-//W3C//DTD SVG 1.1//EN" "http://www.w3.org/Graphics/SVG/1.1/DTD/svg11.dtd">
<svg version="1.1" id="Layer_1" xmlns="http://www.w3.org/2000/svg" xmlns:xlink="http://www.w3.org/1999/xlink" x="0px" y="0px"
	 width="80px" height="80px" viewBox="-164.5 851.5 80 80" enable-background="new -164.5 851.5 80 80" xml:space="preserve">
<path fill="#F47521" d="M-134.28,900.807c5.977,0,10.829,4.852,10.829,10.843s-4.853,10.843-10.829,10.843
	c-5.977,0-10.829-4.852-10.829-10.843S-140.256,900.807-134.28,900.807L-134.28,900.807z M-100.26,927.5
	c2.686-0.239,3.754-2.35,4.824-4.487c3.403-10.084,4.402-21.096,5.063-31.67c0-0.55,1.139-15.724-2.925-14.077
	c-3.938,3.613-7.566,14.344-14.106,11.124c-12.53-6.175-15.146-21.504-25.074-30.11c-1.266-1.097-2.715-1.898-4.304-2.335
	c-7.819-2.194-14.499,4.121-18.057,10.491c-4.908,8.789-4.81,19.675-1.969,29.153c1.266,4.219,3.459,2.109,5.443-1.097
	c0.83-1.349,1.814-2.645,2.996-3.712c3.107-2.842,6.371-4.472,10.323-5.683c4.444-0.999,8.254-0.547,12.53,0.789
	c4.163,2.277,10.013,8.312,11.982,12.909C-110.133,906.77-109.936,923.871-100.26,927.5z"/>
</svg>
