<?xml version="1.0" encoding="utf-8"?>
<!-- Generator: Adobe Illustrator 16.0.0, SVG Export Plug-In . SVG Version: 6.00 Build 0)  -->
<!DOCTYPE svg PUBLIC "-//W3C//DTD SVG 1.1//EN" "http://www.w3.org/Graphics/SVG/1.1/DTD/svg11.dtd">
<svg version="1.1" id="Layer_1" xmlns="http://www.w3.org/2000/svg" xmlns:xlink="http://www.w3.org/1999/xlink" x="0px" y="0px"
	 width="20px" height="20px" viewBox="-410.5 605.5 20 20" enable-background="new -410.5 605.5 20 20" xml:space="preserve">
<path fill="#FFFFFF" d="M-403.134,617.984c1.537,0,2.837,1.302,2.837,2.838c0,1.538-1.3,2.836-2.837,2.836s-2.837-1.298-2.837-2.836
	C-405.972,619.167-404.671,617.984-403.134,617.984L-403.134,617.984z M-394.15,624.959c0.708-0.119,0.944-0.591,1.3-1.182
	c0.945-2.603,1.182-5.558,1.3-8.274c0-0.119,0.354-4.138-0.828-3.664c-1.064,0.943-2.009,3.781-3.666,2.955
	c-3.309-1.773-4.018-5.793-6.62-8.041c-0.354-0.233-0.708-0.472-1.181-0.589c-2.009-0.592-3.783,1.064-4.611,2.718
	c-1.3,2.366-1.3,5.202-0.473,7.686c0.237,1.063,0.828,0.591,1.301-0.236c0.235-0.354,0.472-0.711,0.827-0.947
	c0.828-0.709,1.655-1.181,2.719-1.535c1.183-0.234,2.129-0.117,3.31,0.235c1.064,0.591,2.602,2.128,3.191,3.429
	C-396.752,619.522-396.752,624.014-394.15,624.959z"/>
</svg>
