<?xml version="1.0" encoding="utf-8"?>
<!-- Generator: Adobe Illustrator 16.0.0, SVG Export Plug-In . SVG Version: 6.00 Build 0)  -->
<!DOCTYPE svg PUBLIC "-//W3C//DTD SVG 1.1//EN" "http://www.w3.org/Graphics/SVG/1.1/DTD/svg11.dtd">
<svg version="1.1" id="Layer_1" xmlns="http://www.w3.org/2000/svg" xmlns:xlink="http://www.w3.org/1999/xlink" x="0px" y="0px"
	 width="512px" height="512px" viewBox="-164.5 851.5 512 512" enable-background="new -164.5 851.5 512 512" xml:space="preserve">
<g>
	<path d="M216.904,1077.888c12.012-44.481,23.365-86.522,34.853-129.039c26.5,4.717,48.006,15.505,67.063,33.839
		c-37.813,31.042,0,0-37.813,31.042c7.553,3.223,7.553,3.223,7.553,3.223s0,0,41.227-35.592
		c-21.973-20.798-48.014-36.086-76.795-36.086c-66.926,0,0,0-66.926,0c-7.223,29.514-14.967,59.646-21.41,89.659
		c-3.186,14.833,5.402,29.116,19.978,34.849c9.809,3.859,20.512,5.433,32.198,8.376c0.021-0.077,0.041-0.15,0.063-0.228
		c88.715,16.15,100.551,66.414,97.475,108.153c-3.389,45.982-39.498,70.734-83.399,83.628c49.479,0.694,91.907-35.654,96.899-83.628
		C331.243,1153.619,324.307,1088.156,216.904,1077.888z"/>
	<path d="M163.967,1268.043c-21.75-4.495-39.9-11.848-59.729-25.688c8.228,27.359,8.228,27.359,8.228,27.359s35.914,0,51.491,0
		C163.822,1269.048,164.102,1268.709,163.967,1268.043z"/>
	<path d="M181.318,1211.99c7.437-28.629,13.092-50.432,19.517-75.168c-15.847,2.361-40.652-10.045-54.931-25.727
		c-2.244,7.979-6.829,24.446-9.02,32.225c-0.992-0.063-1.986-0.127-2.982-0.186c-19.188-66.03-38.174-131.347-57.502-197.859
		c-23.737,0-49.465,0-49.465,0s-52.396,186.568-55.962,198.335c-0.965-0.115-1.932-0.23-2.896-0.348
		c-16.316-66.239-32.634-132.481-48.77-197.988c-22.862,0-43.749,0-66.095,0c29.089,108.926,57.896,216.804,86.641,324.439
		c18.475,0,35.263,0,53.021,0c19.53-64.156,39.037-128.238,59.788-196.405c15.758,51.65,30.2,98.993,46.106,151.125
		c12.39-14.215,22.357-25.658,30.078-34.515c18.803,13.437,63.666,42.334,91.6,12.922
		C210.909,1212.889,191.775,1214.309,181.318,1211.99z"/>
</g>
</svg>
