<?xml version="1.0" encoding="utf-8"?>
<!-- Generator: Adobe Illustrator 19.2.1, SVG Export Plug-In . SVG Version: 6.00 Build 0)  -->
<svg version="1.1" id="Layer_1" xmlns="http://www.w3.org/2000/svg" xmlns:xlink="http://www.w3.org/1999/xlink" x="0px" y="0px"
	 viewBox="0 0 24 24" style="enable-background:new 0 0 24 24;" xml:space="preserve">
<style type="text/css">
	.st0{fill-rule:evenodd;clip-rule:evenodd;fill:#FFFFFF;}
</style>
<g>
	<path class="st0" d="M17.8,10.6c0.6-2.1,1.1-4,1.6-6c1.2,0.2,2.2,0.7,3.1,1.6c-1.7,1.4,0,0-1.7,1.4c0.3,0.1,0.3,0.1,0.3,0.1
		s0,0,1.9-1.6c-1-1-2.2-1.7-3.5-1.7c-3.1,0,0,0-3.1,0c-0.3,1.4-0.7,2.8-1,4.1c-0.1,0.7,0.2,1.3,0.9,1.6
		C16.8,10.4,17.2,10.5,17.8,10.6C17.8,10.6,17.8,10.6,17.8,10.6c4.1,0.7,4.6,3.1,4.5,5c-0.2,2.1-1.8,3.3-3.9,3.9
		c2.3,0,4.2-1.6,4.5-3.9C23.1,14.1,22.7,11.1,17.8,10.6z"/>
	<path class="st0" d="M15.3,19.4c-1-0.2-1.8-0.5-2.8-1.2c0.4,1.3,0.4,1.3,0.4,1.3S14.6,19.5,15.3,19.4
		C15.3,19.5,15.4,19.4,15.3,19.4z"/>
	<path class="st0" d="M16.1,16.8c0.3-1.3,0.6-2.3,0.9-3.5c-0.7,0.1-1.9-0.5-2.5-1.2c-0.1,0.4-0.3,1.1-0.4,1.5c0,0-0.1,0-0.1,0
		c-0.9-3-1.8-6.1-2.7-9.1c-1.1,0-2.3,0-2.3,0s-2.4,8.6-2.6,9.2c0,0-0.1,0-0.1,0c-0.8-3.1-1.5-6.1-2.3-9.1c-1.1,0-2,0-3.1,0
		c1.3,5,2.7,10,4,15c0.9,0,1.6,0,2.4,0c0.9-3,1.8-5.9,2.8-9.1c0.7,2.4,1.4,4.6,2.1,7c0.6-0.7,1-1.2,1.4-1.6c0.9,0.6,2.9,2,4.2,0.6
		C17.5,16.9,16.6,16.9,16.1,16.8z"/>
</g>
</svg>
